#!OML:ASF H:\Terrain\Patient Classification 1\Animal1\Tuesday\Animal1.ASF
:FULLY-SPECIFIED
:DEGREES
1663
root 17.8164 16.6754 5.04382 -355.308 -17.7646 725.175
lowerback -5.21693 -1.53923 -4.66329
upperback -5.62391 -1.93651 0.707096
thorax -2.71801 -0.809729 3.28819
lowerneck -7.82915 -1.07126 -3.43829
upperneck 22.6698 -2.965 8.39195
head 8.4814 -0.926928 3.12262
rclavicle -2.96189e-014 6.36111e-015
rhumerus -46.4997 1.31226 -81.7634
rradius 21.2259
rwrist -5.22217
rhand -14.1098 28.0422
rfingers 7.12502
rthumb 12.0232 -1.59247
lclavicle -2.96189e-014 6.36111e-015
lhumerus -41.153 8.0622 79.8959
lradius 40.6672
lwrist -24.3231
lhand 0.296839 40.6491
lfingers 7.12502
lthumb 25.8747 68.9087
rfemur -33.0307 27.1183 5.42163
rtibia 25.1153
rfoot -15.247 -38.2721
rtoes 27.5972
lfemur 6.91499 -16.9849 -26.5079
ltibia 3.68378
lfoot -8.86733 16.5685
ltoes -19.3617
1664
root 17.726 16.6718 5.13395 -355.437 -17.5204 724.811
lowerback -5.04001 -1.56766 -4.50004
upperback -5.64217 -1.98531 0.833324
thorax -2.83117 -0.833838 3.3311
lowerneck -7.92267 -1.0397 -3.32057
upperneck 22.9862 -2.87886 8.02922
head 8.59473 -0.90445 2.99303
rclavicle -7.65321e-015 -7.95139e-016
rhumerus -46.4913 1.24612 -81.6548
rradius 21.3876
rwrist -5.81086
rhand -14.0376 27.8086
rfingers 7.12502
rthumb 12.0928 -1.82194
lclavicle -7.65321e-015 -7.95139e-016
lhumerus -41.424 8.17246 79.9556
lradius 40.5455
lwrist -24.4372
lhand 0.788317 40.6045
lfingers 7.12502
lthumb 26.3452 68.7946
rfemur -32.4727 26.9227 6.28268
rtibia 25.225
rfoot -17.6314 -36.9981
rtoes 31.1224
lfemur 5.9649 -16.8151 -26.1081
ltibia 6.87045
lfoot -9.37003 17.0922
ltoes -24.7812
1665
root 17.6374 16.6669 5.22092 -355.569 -17.2713 724.346
lowerback -4.92322 -1.60581 -4.25751
upperback -5.53314 -2.04107 1.00999
thorax -2.77742 -0.869206 3.37754
lowerneck -8.07246 -1.02886 -3.5566
upperneck 23.0559 -2.84944 8.1382
head 8.64831 -0.895372 3.07557
rclavicle -4.9398e-014 -2.70347e-014
rhumerus -46.1909 1.00451 -81.3597
rradius 21.4458
rwrist -6.03351
rhand -13.7538 27.4296
rfingers 7.12502
rthumb 12.3665 -2.18459
lclavicle -4.9398e-014 -2.70347e-014
lhumerus -41.4712 8.60319 80.0075
lradius 40.3349
lwrist -24.7196
lhand 0.965925 40.7776
lfingers 7.12502
lthumb 26.5152 68.9421
rfemur -31.6657 26.3692 7.4701
rtibia 25.2238
rfoot -19.3177 -35.3876
rtoes 34.6742
lfemur 5.31064 -16.6445 -25.5487
ltibia 9.48895
lfoot -9.96403 17.4996
ltoes -28.2558
1666
root 17.5479 16.6612 5.29858 -355.552 -17.0563 723.656
lowerback -4.70496 -1.59991 -3.82907
upperback -5.51697 -2.0482 1.2047
thorax -2.88634 -0.881044 3.34459
lowerneck -8.17178 -1.06105 -3.636
upperneck 23.0662 -2.89267 8.19768
head 8.67507 -0.913998 3.10575
rclavicle 3.08116e-015 1.82882e-014
rhumerus -46.0105 0.504792 -80.9684
rradius 21.5763
rwrist -5.84755
rhand -13.7259 27.3123
rfingers 7.12502
rthumb 12.3934 -2.30035
lclavicle 3.08116e-015 1.82882e-014
lhumerus -41.5446 8.89415 80.0448
lradius 39.9819
lwrist -24.7239
lhand 0.764199 40.9641
lfingers 7.12502
lthumb 26.3221 69.1576
rfemur -30.8928 25.5907 9.01498
rtibia 25.1741
rfoot -17.1274 -35.2057
rtoes 32.818
lfemur 4.62713 -16.4349 -24.6083
ltibia 11.8354
lfoot -11.1532 17.3871
ltoes -25.9281
1667
root 17.46 16.6596 5.37717 -355.539 -16.9782 723.043
lowerback -4.51289 -1.54528 -3.39809
upperback -5.5642 -1.98933 1.35334
thorax -3.05436 -0.859257 3.26465
lowerneck -8.09293 -1.08893 -3.55005
upperneck 23.0585 -2.90372 8.0124
head 8.65516 -0.931617 3.02603
rclavicle -5.56597e-015 -3.18055e-015
rhumerus -45.9479 0.229108 -80.7146
rradius 21.7072
rwrist -5.96713
rhand -14.1412 27.1325
rfingers 7.12502
rthumb 11.9929 -2.50394
lclavicle -5.56597e-015 -3.18055e-015
lhumerus -41.9079 9.17835 79.9979
lradius 39.8724
lwrist -24.8518
lhand 0.63875 40.9462
lfingers 7.12502
lthumb 26.202 69.1576
rfemur -30.1442 24.5302 10.5904
rtibia 25.0621
rfoot -9.43277 -35.8613
rtoes 22.6512
lfemur 3.8508 -15.6911 -23.7058
ltibia 14.2742
lfoot -12.2033 16.7776
ltoes -22.7864
